<svg id="Capa_1" data-name="Capa 1" xmlns="http://www.w3.org/2000/svg" xmlns:xlink="http://www.w3.org/1999/xlink" viewBox="0 0 640.84 599.32"><defs><style>.cls-1{fill:url(#linear-gradient);}</style><linearGradient id="linear-gradient" x1="320.42" y1="593.3" x2="320.42" y2="6.02" gradientUnits="userSpaceOnUse"><stop offset="0" stop-color="#007ecc"/><stop offset="1" stop-color="#29cc7c"/></linearGradient></defs><path class="cls-1" d="M69.63,593.3H69.5c-31.62-1.71-47-17.41-54.41-30.28C4,543.59,4,517.08,15.18,495.48l.1-.18,55.77-88.17c12.88-19.93,27.75-32.25,62.14-32.25,1.23,0,2.49,0,3.77,0H504.78c1.26,0,2.49,0,3.7,0,34.45,0,49.33,12.33,62.17,32.22l31.2,48.51H546.11l-14.8-22.13c-4.61-6.43-10.59-9.92-28.74-9.92H139.14c-18.12,0-24.11,3.47-28.71,9.89L59.58,512.67c-3.82,6.81-7.47,16.36-3.35,23.43s15.38,11,31,11H554.43c14.93-.24,23.66-2.68,26.6-7.48,2.68-4.35,1.45-11.88-3.64-22.38L563.86,494H619l6.35,10,.1.19c10.86,21,11.54,43.7,1.82,60.69-6.85,12-22,26.6-55,28.38H69.63Zm389.2-255.72A55.2,55.2,0,0,0,514,282.44V61.15A55.21,55.21,0,0,0,458.82,6a18.54,18.54,0,0,0-6.59,1.21L326.4,55.17a12.92,12.92,0,0,1-4.6.84,12.67,12.67,0,0,1-4.6-.85L191.32,7.23A18.56,18.56,0,0,0,184.71,6a55.2,55.2,0,0,0-55.14,55.13V282.44a55.2,55.2,0,0,0,55.14,55.14h60.21V279.09H188.05V68.19L309.14,113a36.5,36.5,0,0,0,25.26,0L455.49,68.19v210.9H398.62v58.49Z"/></svg>