<?xml version="1.0" standalone="no"?>
<!DOCTYPE svg PUBLIC "-//W3C//DTD SVG 20010904//EN"
 "http://www.w3.org/TR/2001/REC-SVG-20010904/DTD/svg10.dtd">
<svg version="1.0" xmlns="http://www.w3.org/2000/svg"
 width="1024.000000pt" height="1024.000000pt" viewBox="0 0 1024.000000 1024.000000"
 preserveAspectRatio="xMidYMid meet">

<g transform="translate(0.000000,1024.000000) scale(0.100000,-0.100000)"
fill="#000000" stroke="none">
<path d="M5665 8603 c-437 -15 -1369 -46 -1775 -58 -278 -8 -539 -18 -580 -21
-194 -16 -320 -105 -370 -263 -25 -79 -25 -125 0 -278 16 -97 86 -549 140
-903 5 -30 33 -210 64 -400 30 -190 58 -371 62 -402 l7 -58 -34 -14 c-77 -31
-76 -32 -83 26 -4 29 -22 150 -41 268 -19 118 -53 330 -75 470 -23 140 -57
340 -76 443 -18 104 -34 212 -34 242 0 29 -5 55 -11 57 -6 2 -11 31 -12 65 -1
33 -5 59 -8 57 -8 -5 -39 208 -46 316 -4 65 -3 90 6 90 6 0 11 12 11 26 0 14
5 34 10 45 6 10 9 19 6 19 -7 0 -96 -150 -145 -243 -37 -70 -41 -85 -41 -151
0 -40 4 -97 10 -127 12 -66 74 -482 100 -679 11 -80 33 -226 50 -325 36 -218
100 -645 100 -667 0 -9 -16 -20 -41 -27 -23 -7 -47 -15 -53 -17 -14 -5 -21 33
-106 596 -113 750 -114 751 -123 734 -6 -11 -7 -82 -3 -180 5 -110 3 -170 -4
-184 -17 -31 -44 -42 -77 -29 -74 28 -161 -21 -184 -104 -20 -68 -20 -70 4
-63 12 3 55 9 95 13 58 5 72 3 70 -7 -2 -8 6 -16 17 -18 26 -5 88 -70 81 -85
-3 -9 -5 -9 -5 0 -1 7 -8 10 -17 6 -12 -4 -13 -8 -3 -14 8 -5 -1 -10 -24 -14
-21 -4 -39 -11 -42 -15 -3 -5 -38 -14 -79 -20 -40 -7 -79 -16 -86 -20 -11 -7
-11 -25 -1 -96 7 -49 14 -90 15 -91 1 -2 41 6 88 16 90 19 115 16 104 -15 -5
-17 -4 -17 9 1 15 19 16 18 13 -13 -1 -19 -6 -36 -10 -38 -4 -3 -7 -15 -7 -27
1 -17 2 -18 6 -4 7 26 32 21 26 -5 -4 -18 -2 -20 6 -8 5 8 13 11 17 7 14 -13
-6 -21 -118 -44 -61 -12 -113 -25 -116 -28 -3 -2 1 -46 8 -97 8 -51 14 -114
14 -139 0 -45 1 -47 24 -38 35 13 83 11 138 -7 55 -19 78 -34 50 -34 -10 0
-55 -17 -100 -38 -241 -113 -356 -363 -261 -569 30 -67 110 -152 170 -182 l45
-22 -45 -25 c-304 -161 -375 -473 -158 -690 20 -20 72 -54 116 -75 45 -21 74
-39 66 -39 -23 0 -144 -85 -194 -137 -199 -205 -150 -524 98 -644 l46 -22 -68
-66 c-80 -77 -116 -143 -132 -239 -29 -177 59 -349 216 -424 69 -32 146 -37
232 -14 51 14 51 14 57 -10 4 -14 28 -47 54 -73 73 -75 162 -97 272 -65 30 9
63 16 72 17 9 1 14 5 12 9 -3 4 0 8 6 8 14 0 32 -48 23 -63 -3 -7 -3 -9 1 -6
4 4 21 -6 39 -22 17 -16 46 -36 64 -44 18 -9 33 -17 33 -19 0 -2 -38 -13 -85
-26 -101 -27 -97 -11 -60 -234 14 -83 25 -162 25 -177 0 -41 10 -59 31 -59 11
0 36 -7 55 -15 31 -13 36 -19 32 -40 l-5 -24 29 24 c20 17 41 25 66 25 l37 -1
-40 -19 c-22 -11 -45 -19 -51 -20 -21 0 -54 -42 -54 -68 0 -42 35 -90 72 -100
70 -18 130 23 143 98 6 33 10 40 23 34 10 -4 39 -13 67 -20 40 -11 60 -26 106
-76 58 -63 65 -63 37 2 -21 47 -32 89 -20 71 8 -10 11 -6 17 17 3 17 13 33 22
36 11 5 14 14 9 37 -3 18 -2 28 4 24 6 -3 10 -22 10 -41 0 -24 7 -41 25 -56
16 -13 23 -28 20 -38 -4 -10 -3 -12 4 -5 15 15 2 55 -18 55 -14 0 -14 2 -1 10
12 7 18 3 27 -20 10 -23 10 -37 -2 -71 -9 -23 -13 -44 -11 -46 2 -2 9 12 16
31 l11 36 36 -53 c19 -28 36 -58 37 -66 2 -8 11 -20 21 -27 10 -8 15 -14 11
-14 -5 0 -3 -7 5 -16 10 -13 10 -17 -2 -25 -11 -8 -10 -9 6 -6 11 2 19 9 17
16 -1 7 21 -7 50 -31 66 -56 158 -118 175 -118 7 0 13 -5 13 -11 0 -5 4 -8 9
-5 4 3 39 -5 77 -18 38 -14 62 -25 54 -25 -8 0 -33 6 -55 14 -49 18 -58 18
-49 3 4 -7 3 -8 -5 -4 -6 4 -9 12 -6 17 9 13 -9 11 -24 -3 -11 -11 -13 -10 -7
0 5 8 -3 16 -23 23 -17 6 -31 14 -31 19 0 4 -22 19 -49 33 l-49 25 5 -26 c3
-15 6 -33 6 -39 0 -7 6 -13 12 -13 6 0 22 -11 35 -25 23 -25 23 -25 2 -25 -15
0 -20 -5 -16 -15 4 -8 10 -15 16 -15 5 0 6 5 3 10 -3 6 -4 10 -2 10 10 0 71
-29 63 -30 -6 0 -1 -6 9 -14 10 -7 27 -11 37 -8 10 2 27 -3 38 -13 10 -9 24
-14 31 -9 7 4 10 3 5 -4 -7 -12 71 -29 144 -32 53 -1 222 20 233 30 4 3 21 4
38 2 22 -3 27 -7 18 -13 -9 -6 -2 -9 21 -9 32 1 33 2 17 14 -17 13 -14 14 20
9 21 -3 69 3 106 12 36 9 76 14 87 10 12 -4 27 -2 35 5 7 6 45 12 83 13 39 1
68 5 66 9 -2 3 9 1 25 -5 22 -8 36 -8 53 1 13 6 39 10 60 9 20 -1 34 1 32 5
-7 11 30 18 126 23 84 4 101 7 130 18 8 3 22 6 30 6 8 0 33 4 55 8 22 5 70 8
107 8 38 0 68 4 68 9 0 4 12 5 27 2 15 -4 29 -3 33 4 4 6 34 12 67 13 34 1 59
5 57 8 -2 3 20 6 49 6 29 -1 115 7 192 16 77 9 230 26 340 37 606 64 698 75
729 92 16 9 18 18 13 68 l-6 58 32 13 c17 7 48 23 68 35 20 12 44 22 55 21 12
-1 19 4 18 15 -1 10 4 14 12 11 16 -6 12 -13 -30 -60 -11 -13 -17 -26 -13 -29
8 -9 67 75 61 89 -2 7 7 24 21 39 14 15 25 34 25 42 0 8 4 16 8 18 11 4 58
115 70 163 6 22 13 66 16 97 l6 58 -72 -73 c-128 -129 -237 -170 -540 -207
-95 -11 -225 -29 -288 -40 -90 -15 -453 -61 -480 -60 -3 0 2 5 10 10 8 5 31
10 50 11 19 0 44 5 55 10 14 7 8 8 -25 4 -55 -7 -45 6 13 16 l42 6 -52 2 c-63
1 -91 10 -71 22 10 7 8 9 -7 10 -16 1 -16 2 5 8 35 11 54 3 39 -15 -9 -11 -6
-14 17 -14 l27 0 -21 23 -22 24 142 17 c347 42 769 106 818 126 124 49 211
128 263 239 39 83 48 203 24 326 -9 44 -54 274 -101 510 -46 237 -87 450 -91
475 -4 25 -9 53 -11 62 -4 12 7 23 36 38 23 12 47 19 53 17 6 -2 17 -28 23
-58 35 -167 233 -1159 236 -1184 2 -16 7 13 12 65 12 134 37 201 105 279 62
71 125 156 94 129 -11 -10 -43 -22 -73 -28 -55 -10 -95 -12 -72 -3 6 2 10 9 7
13 -3 5 3 18 15 30 11 11 17 20 13 20 -4 0 6 14 23 32 l29 32 -34 -27 c-39
-33 -55 -31 -59 6 -4 34 22 76 85 142 63 66 92 119 77 143 -14 22 -45 26 -87
13 -41 -14 -147 -94 -164 -123 l-12 -23 -1 26 c0 43 76 146 120 162 8 3 3 6
-12 6 -24 1 -28 5 -28 29 0 40 10 49 70 64 39 9 56 18 58 32 5 24 -8 36 -47
42 -24 4 -36 0 -56 -22 l-25 -27 0 28 c0 25 -2 27 -12 13 -10 -12 -19 -14 -36
-7 -22 8 -22 10 -7 45 8 21 20 43 26 51 28 33 -56 -13 -107 -59 -26 -23 -30
-18 -38 42 l-7 45 53 30 c67 39 128 123 135 187 5 41 9 46 51 69 141 74 207
246 151 394 -23 61 -103 159 -140 170 -26 9 -24 18 10 38 68 40 131 109 168
185 36 72 38 81 37 167 -1 76 -6 102 -33 172 -18 46 -37 85 -42 88 -14 9 -11
41 7 56 26 22 65 108 71 158 16 140 -98 291 -244 321 -65 14 -134 3 -352 -55
-74 -19 -136 -34 -138 -31 -2 2 53 23 124 46 244 80 347 148 403 265 32 67 33
172 3 231 -44 83 -129 143 -209 147 -24 1 -44 4 -44 7 0 3 13 13 29 23 16 9
43 33 60 52 l30 35 -20 35 c-12 19 -22 52 -23 73 l-1 38 -40 -27 c-62 -40
-117 -58 -217 -69 -51 -6 -105 -13 -120 -16 -26 -5 -28 -3 -30 30 -1 20 -2 44
-2 53 -1 14 14 19 76 29 156 24 235 67 281 152 60 110 43 208 -53 304 -48 48
-68 60 -131 79 -143 44 -282 29 -624 -70 -95 -27 -141 -37 -146 -29 -10 15
-21 107 -14 118 3 4 18 11 34 15 17 3 50 24 75 46 108 95 94 259 -32 370 -42
36 -133 79 -170 79 -9 0 -22 4 -28 8 -6 4 -26 84 -44 177 -38 195 -58 259
-101 326 -48 76 -155 170 -241 212 -126 62 -188 70 -473 60z m277 -164 c88
-18 178 -67 241 -130 61 -61 88 -111 107 -194 12 -52 50 -299 47 -301 -1 -1
-35 -11 -76 -23 -95 -29 -121 -54 -121 -118 0 -26 7 -83 15 -126 19 -99 19
-127 1 -127 -8 0 -17 -3 -19 -7 -7 -11 303 4 378 17 185 33 228 83 163 188
-24 39 -97 78 -165 88 -53 8 -184 -11 -257 -36 -30 -10 -57 -16 -60 -13 -3 4
-6 21 -6 39 0 41 13 49 128 74 109 24 213 25 283 3 68 -22 142 -92 160 -152
12 -39 11 -42 -14 -65 -15 -14 -28 -33 -28 -43 -1 -10 -2 -22 -4 -28 -1 -5 -3
-19 -4 -30 -2 -13 -4 -15 -8 -7 -4 10 -9 7 -17 -9 -20 -39 -288 -112 -461
-125 l-94 -7 -19 32 c-16 26 -21 29 -26 16 -22 -58 3 -95 63 -95 18 0 34 -7
40 -17 7 -12 13 -14 18 -7 5 6 42 14 83 17 41 4 93 9 116 13 48 7 51 2 61 -86
l5 -56 -69 -22 c-99 -32 -99 -32 -106 36 -8 77 -14 89 -43 95 -19 3 -22 1 -14
-8 8 -10 7 -15 -1 -21 -8 -4 -9 -3 -5 4 5 8 0 12 -13 12 -13 0 -21 -8 -23 -22
-3 -19 -12 -25 -63 -34 -39 -7 -53 -13 -40 -16 14 -4 9 -6 -15 -7 -31 -2 -33
-3 -12 -11 18 -8 22 -17 22 -55 0 -41 -2 -44 -18 -34 -14 9 -23 9 -38 0 -17
-11 -15 -12 11 -6 25 4 27 3 12 -6 -10 -6 -27 -9 -37 -6 -11 3 -18 0 -17 -6 1
-6 -17 -14 -40 -19 -24 -5 -43 -13 -43 -18 0 -6 9 -6 23 -1 12 5 42 14 67 21
25 7 54 16 65 20 11 4 38 4 60 1 l40 -7 -35 -8 c-49 -10 -90 -27 -86 -35 2 -3
-6 -7 -19 -7 -12 -1 -49 -13 -81 -27 -33 -14 -95 -36 -139 -50 -44 -14 -71
-26 -60 -26 33 -1 164 35 265 73 296 112 872 287 1091 331 113 23 274 17 339
-14 75 -35 140 -107 140 -155 0 -13 -4 -14 -27 -3 -16 6 -50 27 -76 44 -27 18
-72 40 -100 48 -64 19 -185 19 -255 1 -30 -8 -60 -12 -67 -10 -17 7 -233 -45
-241 -57 -3 -5 1 -9 8 -10 18 -1 -20 -15 -62 -23 -26 -5 -31 -4 -20 3 11 8 6
10 -20 5 -60 -10 -67 -13 -50 -25 11 -7 7 -8 -13 -3 -30 7 -199 -35 -191 -48
3 -4 -2 -5 -10 -2 -8 3 -34 -1 -58 -10 -40 -14 -41 -15 -13 -16 25 -1 27 -2
10 -9 -11 -4 -33 -11 -50 -15 -28 -6 -29 -5 -11 9 15 12 16 15 5 15 -9 0 -19
-3 -23 -7 -3 -4 -14 -8 -24 -9 -28 -2 -223 -54 -282 -74 -30 -10 -81 -24 -112
-31 -32 -7 -58 -16 -58 -21 0 -5 -4 -7 -8 -4 -8 5 -82 -30 -92 -43 -3 -4 -24
-13 -47 -20 -23 -8 -40 -18 -37 -22 2 -5 -21 -16 -53 -24 -57 -17 -162 -46
-235 -66 -21 -5 -38 -13 -38 -17 0 -4 34 -41 75 -82 89 -89 97 -79 -105 -134
-74 -21 -162 -46 -196 -56 -121 -38 -258 -70 -264 -63 -44 52 -130 163 -130
167 0 3 15 6 34 6 18 0 54 3 80 6 l47 7 -7 63 c-6 64 -6 64 19 64 35 0 135 39
178 69 46 32 79 80 101 145 20 60 23 110 7 100 -6 -3 -9 -15 -6 -25 3 -11 1
-19 -4 -19 -5 0 -9 5 -9 11 0 5 -4 7 -10 4 -9 -5 -16 32 -11 58 1 5 -3 6 -7 3
-5 -3 -7 -18 -4 -32 3 -19 1 -25 -7 -20 -6 4 -8 12 -4 19 3 6 -10 0 -31 -12
-66 -41 -110 -59 -161 -66 -107 -14 -100 -9 -97 -71 l4 -55 -61 3 c-34 2 -61
8 -62 13 -1 6 -2 15 -4 20 -1 6 -3 27 -3 48 -2 30 -6 37 -23 37 -34 0 -136 29
-195 55 -30 13 -57 24 -61 24 -3 -1 -10 6 -15 15 -16 28 -38 19 -38 -15 0 -16
-4 -28 -9 -24 -6 3 -13 -10 -17 -30 -3 -19 -10 -38 -15 -41 -20 -12 -7 -48 28
-80 21 -19 80 -60 133 -91 109 -65 132 -82 124 -94 -3 -5 2 -9 10 -9 10 0 13
-6 9 -16 -5 -13 -9 -11 -22 10 -22 37 -31 32 -29 -14 1 -23 -3 -44 -8 -49 -5
-4 -38 -16 -74 -25 -36 -10 -130 -37 -210 -61 -80 -24 -210 -62 -290 -85 -80
-23 -194 -57 -255 -75 -60 -18 -175 -52 -255 -75 -80 -23 -194 -57 -255 -75
-60 -19 -146 -43 -190 -55 -133 -36 -314 -90 -428 -127 -79 -25 -123 -47 -167
-80 -55 -41 -130 -120 -130 -137 0 -14 -25 -33 -43 -33 -44 0 3 109 80 186 99
97 174 129 588 250 132 38 311 91 398 117 l159 48 -6 46 c-17 124 -59 349 -72
379 -8 18 -12 42 -8 53 8 27 -16 124 -27 107 -7 -11 -9 -10 -9 4 0 10 -4 15
-10 12 -6 -3 -7 1 -3 10 5 13 7 14 14 3 6 -9 9 -2 9 20 0 33 -19 46 -21 15 -1
-17 -2 -17 -6 0 -2 9 -9 17 -14 17 -5 0 -9 5 -9 11 0 6 7 9 15 5 9 -3 15 0 15
8 0 9 -8 12 -24 9 -21 -4 -23 -8 -16 -29 6 -14 6 -26 0 -29 -6 -4 -10 3 -10
14 0 11 -5 23 -12 27 -8 5 -9 2 -4 -11 10 -26 20 -111 13 -104 -6 5 -16 58
-22 114 -1 11 -4 27 -8 35 -9 21 -166 976 -174 1053 -15 166 88 286 263 307
38 4 129 10 203 12 l135 3 12 -66 c22 -120 66 -178 173 -227 l55 -25 235 6
c966 27 1141 36 1196 65 109 55 135 142 89 304 -5 16 7 18 108 21 262 7 310 6
360 -4z m-1535 -75 c-3 -3 -12 -4 -19 -1 -8 3 -5 6 6 6 11 1 17 -2 13 -5z
m484 -107 c-10 -9 -11 -8 -5 6 3 10 9 15 12 12 3 -3 0 -11 -7 -18z m1382 -804
c-7 -2 -19 -2 -25 0 -7 3 -2 5 12 5 14 0 19 -2 13 -5z m-3403 -187 c0 -2 14
-95 30 -207 30 -200 30 -204 12 -229 -10 -14 -22 -37 -26 -52 -3 -16 -10 -28
-15 -28 -9 0 -12 20 -53 302 l-22 157 29 31 c25 26 45 38 45 26z m3347 -98
c-3 -8 -6 -5 -6 6 -1 11 2 17 5 13 3 -3 4 -12 1 -19z m660 -54 c-3 -3 -12 -4
-19 -1 -8 3 -5 6 6 6 11 1 17 -2 13 -5z m514 -102 c-6 -11 -35 -30 -65 -43
-31 -13 -56 -28 -56 -33 0 -4 7 -6 15 -2 22 8 18 -1 -5 -14 -18 -10 -20 -8
-20 24 0 31 4 36 28 42 69 15 95 27 100 47 3 12 7 16 9 10 3 -7 0 -21 -6 -31z
m-1248 21 c-7 -2 -19 -2 -25 0 -7 3 -2 5 12 5 14 0 19 -2 13 -5z m454 1 c-3
-3 -12 -4 -19 -1 -8 3 -5 6 6 6 11 1 17 -2 13 -5z m-140 -40 c-3 -3 -12 -4
-19 -1 -8 3 -5 6 6 6 11 1 17 -2 13 -5z m-152 -34 c-3 -5 -16 -10 -28 -11 -20
-1 -20 -2 3 -9 l25 -8 -27 -1 c-14 -1 -34 2 -44 6 -14 5 -9 9 22 19 51 16 56
16 49 4z m776 -35 c-71 -81 -66 -15 -69 -884 -2 -684 -1 -783 12 -778 8 3 34
11 58 17 132 35 556 164 580 176 34 18 95 98 104 137 13 60 19 8 24 -206 6
-245 6 -247 71 -289 l38 -25 -97 -31 c-53 -17 -153 -46 -222 -66 -405 -113
-721 -203 -836 -237 -71 -21 -135 -39 -142 -39 -8 0 -11 260 -12 985 0 561 -4
995 -9 1008 -5 13 -28 40 -51 59 l-43 35 104 28 c57 15 192 54 299 86 107 32
201 58 209 58 7 1 0 -14 -18 -34z m-2681 18 c0 -5 -5 -15 -10 -23 -8 -12 -10
-11 -10 8 0 12 5 22 10 22 6 0 10 -3 10 -7z m23 -20 c-19 -7 -16 -24 3 -21 10
2 19 -3 22 -11 3 -10 -2 -11 -18 -6 -15 5 -20 4 -16 -4 4 -6 3 -11 -3 -11 -17
0 -22 19 -11 40 6 11 16 20 23 19 9 0 9 -2 0 -6z m1804 1 c-3 -3 -12 -4 -19
-1 -8 3 -5 6 6 6 11 1 17 -2 13 -5z m-1130 -24 c1 -11 -2 -18 -8 -15 -13 9
-50 -5 -44 -16 4 -5 4 -9 1 -9 -26 0 7 41 49 60 1 0 1 -9 2 -20z m-616 -7 c13
-16 12 -17 -3 -4 -10 7 -18 15 -18 17 0 8 8 3 21 -13z m-1131 -3 c0 -5 -5 -10
-11 -10 -5 0 -7 5 -4 10 3 6 8 10 11 10 2 0 4 -4 4 -10z m2800 6 c0 -3 -4 -8
-10 -11 -5 -3 -10 -1 -10 4 0 6 5 11 10 11 6 0 10 -2 10 -4z m-984 -32 c-3 -9
-6 -21 -7 -27 0 -7 -4 -3 -8 8 -9 22 -5 35 11 35 5 0 7 -7 4 -16z m844 6 c-34
-11 -60 -11 -35 0 11 5 29 8 40 8 16 0 15 -2 -5 -8z m-3440 -40 c0 -5 -5 -10
-11 -10 -5 0 -7 5 -4 10 3 6 8 10 11 10 2 0 4 -4 4 -10z m2023 3 c-7 -2 -19
-2 -25 0 -7 3 -2 5 12 5 14 0 19 -2 13 -5z m57 -3 c0 -5 -5 -10 -11 -10 -5 0
-7 5 -4 10 3 6 8 10 11 10 2 0 4 -4 4 -10z m37 -6 c-3 -3 -12 -4 -19 -1 -8 3
-5 6 6 6 11 1 17 -2 13 -5z m1747 -76 c-4 -7 -20 -29 -35 -48 -53 -67 -52 -54
-45 -1034 6 -875 8 -911 26 -941 11 -17 31 -37 45 -45 14 -7 25 -16 25 -19 0
-4 -48 -20 -107 -35 -114 -31 -434 -127 -468 -141 -19 -8 -19 -7 -3 11 9 11
26 40 37 64 20 44 21 63 21 645 0 329 -4 595 -8 590 -5 -6 -59 -127 -119 -270
-252 -592 -453 -1049 -458 -1043 -13 17 -242 357 -411 613 -117 176 -220 329
-229 340 -14 18 -15 -29 -12 -566 3 -653 -1 -618 73 -661 19 -11 34 -23 34
-28 0 -4 -80 -30 -177 -59 -98 -28 -234 -69 -303 -91 -68 -21 -126 -37 -129
-34 -2 2 5 14 16 27 11 12 29 38 39 57 18 34 19 73 16 959 -3 872 -4 927 -21
966 -11 26 -33 51 -55 64 -20 13 -36 27 -36 31 0 5 19 14 43 20 23 7 134 38
246 71 150 44 207 57 216 49 17 -14 224 -313 455 -657 100 -150 185 -273 189
-273 3 0 30 60 60 133 30 72 116 278 191 457 181 428 210 503 210 533 0 18
-15 39 -50 70 l-50 45 53 12 c47 11 606 171 667 190 39 13 62 12 54 -2z
m-3814 -208 c0 -5 -10 -10 -22 -9 -22 0 -22 1 -3 9 11 5 21 9 23 9 1 1 2 -3 2
-9z m367 -56 c7 -32 14 -92 15 -132 3 -70 2 -73 -24 -89 -15 -10 -29 -15 -32
-12 -6 6 -36 192 -36 226 0 28 37 76 54 70 6 -2 17 -30 23 -63z m1711 -5 c-7
-4 -23 -10 -34 -13 -19 -6 -22 -2 -27 26 -6 45 12 53 46 21 19 -20 24 -29 15
-34z m-2071 -16 c-3 -10 -5 -4 -5 12 0 17 2 24 5 18 2 -7 2 -21 0 -30z m-50
-5 c-3 -8 -6 -5 -6 6 -1 11 2 17 5 13 3 -3 4 -12 1 -19z m5136 -23 c45 -21 84
-69 93 -113 6 -28 4 -32 -15 -32 -11 0 -21 6 -22 13 0 9 -2 9 -6 0 -3 -8 -17
-1 -39 21 -36 35 -95 56 -157 56 -37 0 -258 -54 -289 -71 -18 -9 -19 -7 -16
27 3 43 -9 37 203 95 123 33 186 34 248 4z m-3243 -15 c0 -5 -2 -10 -4 -10 -3
0 -8 5 -11 10 -3 6 -1 10 4 10 6 0 11 -4 11 -10z m-552 -162 c-15 -5 -34 -6
-42 -1 -10 6 -1 9 27 9 38 1 40 0 15 -8z m3675 -102 c-27 -37 -76 -61 -193
-94 -58 -17 -113 -34 -122 -37 -15 -6 -18 -2 -18 23 0 34 -4 33 206 88 54 14
108 32 119 39 27 18 30 11 8 -19z m-2249 -63 c-7 -16 -14 -31 -14 -36 0 -4
-23 -54 -52 -111 -38 -78 -54 -101 -62 -93 -6 7 -27 32 -46 57 -19 25 -46 58
-60 73 -14 16 -25 34 -25 40 0 12 47 30 185 73 95 29 91 29 74 -3z m-2224 -57
c0 -2 -7 -7 -16 -10 -8 -3 -12 -2 -9 4 6 10 25 14 25 6z m553 -176 c76 -24
169 -82 219 -138 155 -172 157 -469 6 -709 -51 -81 -170 -192 -253 -234 -36
-19 -65 -37 -65 -41 0 -8 403 -610 435 -649 11 -14 44 -43 72 -66 l53 -41 -43
-16 c-60 -23 -415 -126 -432 -126 -8 0 -48 51 -88 113 -110 166 -215 329 -286
442 -34 55 -107 170 -162 255 -54 85 -114 178 -132 207 -17 29 -35 53 -39 53
-5 0 -8 -258 -8 -572 0 -551 1 -574 20 -605 10 -18 33 -39 50 -48 18 -9 30
-18 28 -20 -1 -2 -122 -38 -268 -80 -146 -42 -275 -80 -288 -86 -41 -16 -42
-10 -7 63 l35 72 0 944 c0 1010 2 970 -49 1016 -26 23 -27 36 -3 36 9 0 136
34 282 76 429 123 581 164 645 173 82 13 201 5 278 -19z m4158 -11 c47 -16
113 -71 132 -111 15 -31 13 -63 -3 -38 -4 7 -17 10 -29 7 -11 -3 -25 1 -32 10
-19 23 -79 49 -138 62 -64 14 -106 7 -332 -50 -86 -21 -159 -39 -162 -39 -4 0
-7 9 -7 20 0 15 13 26 48 41 38 17 253 80 347 102 40 9 143 7 176 -4z m-5371
-703 c0 -30 -6 -37 -59 -69 -66 -41 -112 -85 -147 -139 -25 -39 -57 -50 -67
-24 -7 19 28 83 72 132 36 40 168 133 189 134 7 0 12 -13 12 -34z m10 -291 c0
-44 -2 -46 -54 -80 -30 -19 -57 -44 -61 -55 -10 -33 -25 -12 -25 35 0 32 7 51
26 75 23 27 86 68 107 70 4 0 7 -20 7 -45z m5306 -170 c58 -17 104 -56 134
-114 24 -48 23 -72 -3 -47 -9 10 -17 14 -17 9 0 -4 -5 -1 -10 7 -5 8 -13 15
-17 15 -4 0 -22 10 -40 23 -47 34 -125 30 -216 -9 -40 -18 -74 -34 -77 -38 -6
-7 -23 -12 -62 -19 -16 -2 -28 -9 -28 -14 0 -5 -4 -6 -10 -3 -19 12 -10 25 18
25 23 1 25 2 9 11 -9 6 -15 14 -12 20 3 5 -1 6 -9 3 -9 -3 -16 -1 -16 5 0 6
-8 11 -17 11 -10 0 -25 5 -33 10 -11 7 -5 8 20 4 26 -4 31 -3 20 5 -12 9 -11
11 10 12 14 1 28 1 31 1 4 -1 5 8 2 18 -5 17 0 20 31 20 20 0 36 4 36 9 0 8
63 33 115 44 41 9 93 7 141 -8z m-343 -72 c-7 -2 -19 -2 -25 0 -7 3 -2 5 12 5
14 0 19 -2 13 -5z m-103 -23 c8 -5 11 -10 5 -10 -5 0 -17 5 -25 10 -8 5 -10
10 -5 10 6 0 17 -5 25 -10z m80 -61 c0 -5 -7 -9 -15 -9 -9 0 -12 6 -9 15 6 15
24 11 24 -6z m290 -16 c25 -17 40 -33 40 -44 0 -3 -21 -4 -47 -2 -29 3 -76 -3
-118 -15 -38 -11 -145 -41 -236 -66 -277 -77 -573 -138 -468 -97 13 5 51 21
84 36 71 32 80 35 350 119 302 94 348 102 395 69z m-5240 -175 c0 -29 -7 -37
-59 -71 -54 -34 -91 -70 -157 -150 -12 -14 -20 -28 -18 -30 2 -1 -8 -3 -21 -3
-14 0 -25 6 -25 13 0 24 40 93 78 135 33 37 175 138 195 138 4 0 7 -15 7 -32z
m3850 -75 c-4 -36 -9 -47 -20 -44 -33 10 -73 3 -92 -17 -27 -27 -18 -38 38
-46 26 -3 56 -14 66 -23 42 -38 7 -153 -59 -194 -41 -25 -95 -41 -102 -30 -4
4 -18 14 -33 22 l-27 14 22 43 c12 24 23 39 25 33 5 -15 77 -14 90 2 5 6 12
21 14 32 3 17 -4 21 -49 25 -61 6 -82 27 -83 80 0 68 49 118 137 139 77 18 80
17 73 -36z m250 -45 c0 -6 7 -19 16 -29 14 -16 13 -17 -8 -16 -13 0 -42 -3
-65 -7 -58 -11 -57 16 2 47 36 19 55 21 55 5z m-590 -32 c0 -40 -8 -47 -82
-70 -50 -15 -58 -20 -58 -42 0 -28 11 -30 70 -9 51 18 58 15 52 -24 -4 -27
-11 -32 -61 -48 -48 -16 -56 -22 -59 -45 -4 -33 4 -34 74 -13 27 8 50 15 52
15 1 0 2 -22 2 -50 l0 -49 -82 -25 c-46 -14 -96 -28 -112 -32 l-29 -7 6 48 c4
26 7 107 7 180 l0 133 35 6 c20 4 34 10 31 14 -2 4 12 8 31 9 19 1 51 11 71
22 50 27 52 26 52 -13z m-3510 -166 c0 -48 -2 -51 -37 -67 -21 -10 -47 -33
-60 -51 -21 -31 -22 -32 -32 -13 -28 51 0 110 72 151 28 16 53 30 55 30 1 0 2
-22 2 -50z m3032 -81 l-4 -131 24 7 c13 4 38 14 57 21 49 20 51 19 51 -35 0
-44 -3 -50 -27 -59 -23 -10 -171 -52 -180 -52 -2 0 -3 81 -3 179 l0 179 28 10
c58 22 57 24 54 -119z m-322 30 c0 -6 27 -71 60 -143 33 -73 60 -138 60 -145
0 -6 -19 -20 -42 -30 -46 -20 -58 -14 -58 27 0 27 3 27 -81 2 -66 -20 -69 -22
-79 -60 -6 -22 -14 -40 -18 -41 -37 -4 -50 -7 -71 -13 -18 -6 -23 -5 -18 5 28
69 136 349 141 365 9 30 106 60 106 33z m2054 -216 c21 -109 70 -362 109 -563
98 -513 97 -579 -12 -693 -46 -49 -93 -73 -188 -98 -109 -27 -129 -23 -48 11
83 35 158 103 188 170 36 78 34 92 -88 725 -79 415 -105 557 -105 585 0 24 6
31 43 43 23 9 47 16 52 16 6 1 28 -87 49 -196z m-2394 84 l0 -44 -45 1 c-33 1
-50 -4 -66 -20 -28 -29 -19 -40 37 -47 58 -6 86 -32 86 -80 0 -72 -27 -114
-96 -149 -28 -14 -51 -19 -79 -15 -54 7 -62 18 -47 61 14 44 23 50 48 35 16
-10 26 -9 53 7 53 31 50 51 -12 59 -83 12 -107 53 -75 129 17 41 65 76 125 92
70 19 71 19 71 -29z m2296 -269 c4 -6 -1 -17 -11 -25 -17 -12 -17 -13 -2 -13
17 0 22 -11 11 -23 -4 -3 -13 0 -21 8 -8 8 -22 15 -31 15 -15 0 -15 -2 -2 -11
11 -8 7 -9 -17 -5 -19 3 -33 1 -33 -4 0 -6 3 -9 8 -8 4 2 18 -5 32 -15 17 -12
20 -17 9 -17 -9 0 -33 14 -54 30 -21 17 -45 30 -54 30 -14 0 -14 -2 -1 -10 13
-8 12 -10 -5 -11 -11 -1 -22 -1 -25 -1 -6 1 -4 -78 4 -148 l5 -45 -10 40 c-6
22 -12 54 -12 72 -1 17 -5 34 -8 37 -3 3 -4 19 -1 35 4 32 30 42 92 35 29 -3
31 -2 10 5 -23 7 -21 9 25 24 61 19 82 20 91 5z m-4690 -32 c-3 -14 -30 -49
-60 -79 -30 -29 -63 -72 -75 -94 -16 -33 -25 -40 -41 -36 -11 3 -20 14 -20 25
0 51 96 164 164 194 41 17 39 18 32 -10z m1861 3 c27 -11 25 -12 -56 -40 -47
-16 -86 -27 -88 -25 -6 6 18 60 30 68 18 11 82 10 114 -3z m2540 -51 c-3 -8
-6 -5 -6 6 -1 11 2 17 5 13 3 -3 4 -12 1 -19z m163 7 c0 -8 5 -15 10 -15 6 0
10 -7 10 -15 0 -11 11 -15 42 -15 23 0 39 -2 37 -4 -8 -7 -88 -14 -87 -8 3 15
-15 42 -28 42 -8 0 -14 7 -14 15 0 8 7 15 15 15 8 0 15 -7 15 -15z m-11 -46
c11 0 12 -2 3 -6 -19 -7 -42 16 -41 41 1 18 3 17 12 -6 6 -16 18 -28 26 -29z
m148 14 c-3 -10 -5 -4 -5 12 0 17 2 24 5 18 2 -7 2 -21 0 -30z m-360 21 c-3
-3 -12 -4 -19 -1 -8 3 -5 6 6 6 11 1 17 -2 13 -5z m-2851 -51 c-18 -18 -342
-130 -571 -198 -216 -64 -300 -76 -359 -51 -41 17 -46 33 -5 18 31 -12 27 -13
219 51 166 55 404 119 600 162 121 27 126 27 116 18z m3021 -15 c-3 -8 -6 -5
-6 6 -1 11 2 17 5 13 3 -3 4 -12 1 -19z m190 16 c-3 -3 -12 -4 -19 -1 -8 3 -5
6 6 6 11 1 17 -2 13 -5z m-130 -30 c-3 -3 -12 -4 -19 -1 -8 3 -5 6 6 6 11 1
17 -2 13 -5z m867 -9 c-4 -8 -11 -15 -16 -15 -6 0 -5 6 2 15 7 8 14 15 16 15
2 0 1 -7 -2 -15z m-837 -21 c-3 -3 -12 -4 -19 -1 -8 3 -5 6 6 6 11 1 17 -2 13
-5z m-4209 -141 c-3 -26 -11 -30 -118 -65 -154 -51 -206 -57 -262 -29 -35 17
-78 63 -78 84 0 2 24 -4 53 -14 73 -26 126 -22 252 16 142 43 157 43 153 8z
m3948 -52 c49 -22 74 -55 74 -96 0 -51 -11 -74 -45 -95 -84 -52 -195 9 -195
107 0 48 22 80 63 92 47 13 58 13 103 -8z m85 -8 c13 -16 12 -17 -3 -4 -10 7
-18 15 -18 17 0 8 8 3 21 -13z m-598 -83 c41 -36 52 -78 33 -125 -40 -95 -189
-81 -225 21 -12 35 -12 44 3 76 21 43 46 56 108 57 39 1 53 -4 81 -29z m-1068
-191 l33 -12 -39 -37 c-22 -20 -39 -44 -39 -53 0 -25 -17 -20 -24 7 -5 22 -35
40 -81 49 -18 3 -17 5 8 17 31 15 57 57 57 92 0 20 3 18 27 -15 14 -20 41 -42
58 -48z m531 57 c8 -32 -2 -46 -31 -46 -25 0 -39 23 -30 51 10 29 53 25 61 -5z
m-1046 -191 c18 -21 3 -55 -25 -55 -15 0 -26 7 -30 20 -7 23 10 50 30 50 7 0
18 -7 25 -15z m-1023 -197 c-3 -8 -6 -5 -6 6 -1 11 2 17 5 13 3 -3 4 -12 1
-19z m10 -65 c-3 -10 -5 -2 -5 17 0 19 2 27 5 18 2 -10 2 -26 0 -35z m-40 -15
c-3 -7 -5 -2 -5 12 0 14 2 19 5 13 2 -7 2 -19 0 -25z m2726 -16 c-6 -48 2 -43
-138 -67 -451 -74 -1484 -200 -1501 -182 -7 6 164 47 386 91 214 43 636 112
985 161 143 20 262 39 264 41 9 8 10 -2 4 -44z m-2796 16 c-3 -8 -6 -5 -6 6
-1 11 2 17 5 13 3 -3 4 -12 1 -19z m426 -38 c3 -34 2 -47 -3 -35 -8 19 -14
103 -6 94 2 -2 6 -29 9 -59z m-306 -7 c-3 -10 -5 -4 -5 12 0 17 2 24 5 18 2
-7 2 -21 0 -30z m-110 -5 c-3 -8 -6 -5 -6 6 -1 11 2 17 5 13 3 -3 4 -12 1 -19z
m70 -30 c-3 -7 -5 -2 -5 12 0 14 2 19 5 13 2 -7 2 -19 0 -25z m-37 -43 c0 -5
-5 -3 -10 5 -5 8 -10 20 -10 25 0 6 5 3 10 -5 5 -8 10 -19 10 -25z m97 -37
c-3 -8 -6 -5 -6 6 -1 11 2 17 5 13 3 -3 4 -12 1 -19z m-95 -38 c1 -28 0 -50
-4 -50 -5 0 -8 8 -8 19 0 10 -3 33 -6 50 -4 19 -2 31 4 31 5 0 12 -23 14 -50z
m21 15 c-3 -9 -8 -14 -10 -11 -3 3 -2 9 2 15 9 16 15 13 8 -4z m2 -184 c3 -62
2 -63 -6 -21 -5 25 -6 53 -3 62 3 10 1 18 -5 18 -6 0 -11 10 -11 23 1 21 1 21
11 3 6 -10 13 -48 14 -85z m82 67 c-3 -8 -6 -5 -6 6 -1 11 2 17 5 13 3 -3 4
-12 1 -19z m-60 -70 c-3 -8 -6 -5 -6 6 -1 11 2 17 5 13 3 -3 4 -12 1 -19z
m2603 -28 c8 -5 11 -10 5 -10 -5 0 -17 5 -25 10 -8 5 -10 10 -5 10 6 0 17 -5
25 -10z m-2507 -15 c-3 -9 -8 -14 -10 -11 -3 3 -2 9 2 15 9 16 15 13 8 -4z
m2454 9 c-3 -3 -12 -4 -19 -1 -8 3 -5 6 6 6 11 1 17 -2 13 -5z m-124 -11 c-7
-2 -19 -2 -25 0 -7 3 -2 5 12 5 14 0 19 -2 13 -5z m-52 -16 c-4 -4 -18 -3 -32
2 -23 9 -22 9 8 8 18 -1 28 -6 24 -10z m-2380 -33 c-9 -28 -9 -29 -10 -3 -1
14 2 29 6 32 11 12 13 2 4 -29z m34 -30 c-8 -16 -15 -22 -15 -14 0 13 -1 13
-10 0 -5 -8 -10 -10 -10 -4 0 6 9 19 20 29 11 10 21 25 21 34 1 14 2 14 6 0 2
-8 -3 -28 -12 -45z m78 25 c-3 -12 -9 -17 -15 -11 -10 10 0 44 12 37 5 -3 6
-14 3 -26z m2184 25 c-3 -3 -12 -4 -19 -1 -8 3 -5 6 6 6 11 1 17 -2 13 -5z
m-130 -10 c-3 -3 -12 -4 -19 -1 -8 3 -5 6 6 6 11 1 17 -2 13 -5z m250 0 c-3
-3 -12 -4 -19 -1 -8 3 -5 6 6 6 11 1 17 -2 13 -5z m-212 -14 c3 -6 -1 -7 -9
-4 -18 7 -21 14 -7 14 6 0 13 -4 16 -10z m42 4 c-3 -3 -12 -4 -19 -1 -8 3 -5
6 6 6 11 1 17 -2 13 -5z m60 -1 c-16 -3 -25 -9 -21 -15 4 -7 2 -8 -5 -4 -18
12 -2 26 27 25 l27 -2 -28 -4z m-1886 -30 c13 -16 12 -17 -3 -4 -17 13 -22 21
-14 21 2 0 10 -8 17 -17z m1979 7 c0 -5 -4 -10 -10 -10 -5 0 -10 5 -10 10 0 6
5 10 10 10 6 0 10 -4 10 -10z m215 1 c-15 -13 -91 -20 -106 -9 -11 8 -11 9 1
5 9 -2 33 -1 55 3 58 11 60 11 50 1z m-438 -17 c-3 -3 -12 -4 -19 -1 -8 3 -5
6 6 6 11 1 17 -2 13 -5z m130 0 c-3 -3 -12 -4 -19 -1 -8 3 -5 6 6 6 11 1 17
-2 13 -5z m180 0 c-3 -3 -12 -4 -19 -1 -8 3 -5 6 6 6 11 1 17 -2 13 -5z m-282
-25 c-7 -11 1 -11 35 -2 l25 7 -25 8 c-17 5 -14 6 10 1 19 -3 48 -5 64 -5 41
2 24 -10 -21 -15 -21 -2 -58 -6 -83 -9 -35 -4 -41 -2 -27 6 9 6 14 16 11 22
-4 7 -2 8 5 4 6 -4 9 -12 6 -17z m-42 4 c-7 -2 -19 -2 -25 0 -7 3 -2 5 12 5
14 0 19 -2 13 -5z m-30 -20 c-7 -2 -21 -2 -30 0 -10 3 -4 5 12 5 17 0 24 -2
18 -5z m-1612 -40 c13 -16 12 -17 -3 -4 -17 13 -22 21 -14 21 2 0 10 -8 17
-17z m163 -82 c4 -5 -3 -7 -14 -4 -23 6 -26 13 -6 13 8 0 17 -4 20 -9z m43
-17 c-3 -3 -12 -4 -19 -1 -8 3 -5 6 6 6 11 1 17 -2 13 -5z m306 -21 c-13 -2
-33 -2 -45 0 -13 2 -3 4 22 4 25 0 35 -2 23 -4z m-629 -182 c-2 -3 -12 3 -22
13 -16 17 -16 18 5 5 12 -7 20 -15 17 -18z m1009 -28 c-7 -2 -19 -2 -25 0 -7
3 -2 5 12 5 14 0 19 -2 13 -5z m-946 -30 c-9 -9 -20 -13 -24 -9 -4 4 -1 11 7
16 25 16 35 11 17 -7z m660 -9 c-3 -3 -12 -4 -19 -1 -8 3 -5 6 6 6 11 1 17 -2
13 -5z m-642 -14 c-19 -8 -19 -9 -1 -9 11 -1 17 -3 14 -6 -3 -4 -18 -3 -33 1
-20 5 -23 9 -13 15 7 5 22 8 33 8 l20 0 -20 -9z m230 0 c18 -8 17 -9 -7 -9
-16 -1 -28 4 -28 9 0 12 8 12 35 0z m242 -86 c-3 -3 -12 -4 -19 -1 -8 3 -5 6
6 6 11 1 17 -2 13 -5z"/>
<path d="M6038 7106 c-10 -7 -18 -18 -18 -25 0 -15 -17 -14 -23 2 -3 6 -6 8
-6 2 0 -5 3 -17 9 -25 7 -12 12 -12 29 4 17 15 23 16 36 6 12 -10 15 -10 15 4
0 9 -7 16 -15 16 -21 0 -19 18 3 23 12 3 13 5 2 6 -8 0 -23 -6 -32 -13z"/>
<path d="M5171 7044 c0 -11 3 -14 6 -6 3 7 2 16 -1 19 -3 4 -6 -2 -5 -13z"/>
<path d="M5915 7040 c3 -5 8 -10 11 -10 2 0 4 5 4 10 0 6 -5 10 -11 10 -5 0
-7 -4 -4 -10z"/>
<path d="M4530 7026 c0 -2 7 -7 16 -10 8 -3 12 -2 9 4 -6 10 -25 14 -25 6z"/>
<path d="M5918 7003 c7 -3 16 -2 19 1 4 3 -2 6 -13 5 -11 0 -14 -3 -6 -6z"/>
<path d="M5150 6980 c6 -11 13 -20 16 -20 2 0 0 9 -6 20 -6 11 -13 20 -16 20
-2 0 0 -9 6 -20z"/>
<path d="M5788 6943 c7 -3 16 -2 19 1 4 3 -2 6 -13 5 -11 0 -14 -3 -6 -6z"/>
<path d="M5668 6823 c7 -3 16 -2 19 1 4 3 -2 6 -13 5 -11 0 -14 -3 -6 -6z"/>
<path d="M3345 5444 c-60 -16 -307 -87 -347 -100 l-48 -16 0 -188 0 -188 98
29 c233 70 355 113 398 142 63 41 96 95 102 163 8 99 -35 152 -131 159 -28 2
-61 1 -72 -1z"/>
<path d="M5097 3804 c-10 -31 -16 -58 -14 -60 8 -8 67 18 67 29 0 7 -8 29 -18
49 l-17 38 -18 -56z"/>
<path d="M7075 3560 c-8 -13 15 -13 35 0 12 8 11 10 -7 10 -12 0 -25 -4 -28
-10z"/>
<path d="M6402 8470 c90 -111 121 -188 162 -394 l31 -158 55 -21 c159 -58 275
-191 287 -328 l6 -57 36 5 c20 3 42 11 50 18 36 34 -38 191 -132 283 -36 34
-68 62 -71 62 -4 0 -17 9 -29 20 -12 12 -32 23 -44 26 -13 4 -23 10 -23 15 0
4 -9 13 -20 19 -16 8 -18 8 -14 -4 7 -18 -7 -26 -33 -20 -17 5 -25 28 -51 147
-21 92 -44 166 -66 212 -38 76 -116 178 -156 204 -21 13 -19 9 12 -29z"/>
<path d="M6661 7964 c0 -11 3 -14 6 -6 3 7 2 16 -1 19 -3 4 -6 -2 -5 -13z"/>
<path d="M2381 7341 c-37 -10 -50 -37 -28 -58 25 -26 104 -25 123 2 12 16 12
21 1 32 -18 19 -68 31 -96 24z"/>
<path d="M7759 3863 c-13 -16 -12 -17 4 -4 9 7 17 15 17 17 0 8 -8 3 -21 -13z"/>
<path d="M7919 3218 c11 -15 11 -21 1 -33 -7 -9 -8 -15 -2 -15 19 0 23 33 5
49 -16 15 -16 15 -4 -1z"/>
<path d="M7900 2855 c-6 -8 -10 -22 -8 -32 4 -24 66 -25 81 -1 23 36 -45 67
-73 33z"/>
<path d="M3055 2690 c-3 -5 -1 -10 4 -10 6 0 11 5 11 10 0 6 -2 10 -4 10 -3 0
-8 -4 -11 -10z"/>
<path d="M3050 2556 c0 -2 7 -6 15 -10 8 -3 15 -1 15 4 0 6 -7 10 -15 10 -8 0
-15 -2 -15 -4z"/>
<path d="M6465 2120 c-13 -5 -14 -9 -5 -9 8 0 24 4 35 9 13 5 14 9 5 9 -8 0
-24 -4 -35 -9z"/>
<path d="M6378 2103 c7 -3 16 -2 19 1 4 3 -2 6 -13 5 -11 0 -14 -3 -6 -6z"/>
<path d="M7435 1920 c3 -5 8 -10 11 -10 2 0 4 5 4 10 0 6 -5 10 -11 10 -5 0
-7 -4 -4 -10z"/>
<path d="M3706 1905 c4 -8 8 -15 10 -15 2 0 4 7 4 15 0 8 -4 15 -10 15 -5 0
-7 -7 -4 -15z"/>
<path d="M3791 1888 c-1 -9 11 -31 26 -50 15 -18 28 -35 30 -37 2 -2 5 -2 8 1
3 3 -5 16 -17 29 -13 14 -28 36 -35 49 -8 18 -12 20 -12 8z"/>
<path d="M3690 1884 c0 -5 7 -18 15 -28 12 -16 15 -17 15 -4 0 8 -7 21 -15 28
-8 7 -15 9 -15 4z"/>
<path d="M3735 1860 c3 -5 8 -10 11 -10 2 0 4 5 4 10 0 6 -5 10 -11 10 -5 0
-7 -4 -4 -10z"/>
<path d="M3719 1830 c-8 -6 -8 -9 0 -14 6 -4 11 -1 12 6 0 7 7 0 14 -17 7 -16
11 -33 8 -37 -2 -5 1 -8 6 -8 6 0 11 -5 11 -11 0 -6 9 -22 20 -36 11 -14 20
-20 20 -14 0 7 4 9 10 6 6 -3 7 1 4 10 -5 13 -2 14 21 5 33 -12 35 -12 35 0 0
6 -12 10 -26 10 -20 0 -25 4 -20 16 4 10 2 13 -6 8 -7 -5 -9 0 -5 15 4 15 -1
24 -15 32 -11 6 -17 17 -14 25 3 8 1 14 -3 14 -16 0 -21 -31 -6 -36 8 -4 15
-18 15 -32 l0 -26 -21 21 c-12 11 -22 32 -22 45 -2 25 -16 31 -38 18z m101
-91 c0 -5 -5 -9 -11 -9 -5 0 -7 -6 -3 -12 5 -9 2 -9 -9 1 -22 18 -21 26 3 28
11 1 20 -2 20 -8z"/>
<path d="M3701 1805 c3 -5 15 -30 26 -55 26 -57 134 -167 193 -199 l45 -24
-55 51 c-30 28 -50 51 -43 52 6 0 15 -4 18 -10 14 -22 31 -9 31 24 0 29 -2 32
-12 18 -9 -12 -9 -21 -2 -29 7 -9 7 -13 0 -13 -6 0 -14 5 -17 11 -4 6 -13 8
-21 5 -26 -10 -141 134 -127 158 3 6 3 8 -2 4 -4 -4 -15 -2 -23 5 -9 6 -13 8
-11 2z"/>
<path d="M3850 1770 c20 -13 33 -13 25 0 -3 6 -14 10 -23 10 -15 0 -15 -2 -2
-10z"/>
<path d="M3930 1690 c8 -5 20 -10 25 -10 6 0 3 5 -5 10 -8 5 -19 10 -25 10 -5
0 -3 -5 5 -10z"/>
<path d="M3824 1671 c17 -18 60 -18 72 0 11 19 -29 22 -42 4 -12 -16 -14 -17
-20 -2 -3 10 -11 17 -17 17 -5 0 -3 -8 7 -19z m63 3 c-3 -3 -12 -4 -19 -1 -8
3 -5 6 6 6 11 1 17 -2 13 -5z"/>
<path d="M3990 1590 c0 -6 -11 -8 -27 -5 l-28 6 28 -16 c29 -17 37 -31 12 -21
-21 8 -19 -1 4 -13 15 -9 18 -7 17 12 -1 12 2 25 7 28 5 4 4 10 -2 13 -6 4
-11 2 -11 -4z"/>
<path d="M3977 1519 c7 -7 15 -10 18 -7 3 3 -2 9 -12 12 -14 6 -15 5 -6 -5z"/>
<path d="M4603 1403 c9 -2 23 -2 30 0 6 3 -1 5 -18 5 -16 0 -22 -2 -12 -5z"/>
</g>
</svg>
